<svg width="29" height="55" viewBox="0 0 29 55" fill="none" xmlns="http://www.w3.org/2000/svg">
<path d="M13.4561 23.5C13.4561 19.9101 10.5459 17 6.95605 17C3.3662 17 0.456055 19.9101 0.456055 23.5C0.456055 27.0899 3.3662 30 6.95605 30C10.5459 30 13.4561 27.0899 13.4561 23.5Z" fill="white"/>
<path d="M13.4561 6.5C13.4561 2.91015 10.5459 0 6.95605 0C3.3662 0 0.456055 2.91015 0.456055 6.5C0.456055 10.0899 3.3662 13 6.95605 13C10.5459 13 13.4561 10.0899 13.4561 6.5Z" fill="white"/>
<path d="M28.4561 14.5C28.4561 10.9101 25.5459 8 21.9561 8C18.3662 8 15.4561 10.9101 15.4561 14.5C15.4561 18.0899 18.3662 21 21.9561 21C25.5459 21 28.4561 18.0899 28.4561 14.5Z" fill="white"/>
<path d="M28.4561 31.5C28.4561 27.9101 25.5459 25 21.9561 25C18.3662 25 15.4561 27.9101 15.4561 31.5C15.4561 35.0899 18.3662 38 21.9561 38C25.5459 38 28.4561 35.0899 28.4561 31.5Z" fill="white"/>
<path d="M28.4561 48.5C28.4561 44.9101 25.5459 42 21.9561 42C18.3662 42 15.4561 44.9101 15.4561 48.5C15.4561 52.0899 18.3662 55 21.9561 55C25.5459 55 28.4561 52.0899 28.4561 48.5Z" fill="white"/>
<path d="M13.4561 40.5C13.4561 36.9101 10.5459 34 6.95605 34C3.3662 34 0.456055 36.9101 0.456055 40.5C0.456055 44.0899 3.3662 47 6.95605 47C10.5459 47 13.4561 44.0899 13.4561 40.5Z" fill="white"/>
</svg>
